<?xml version="1.0" encoding="UTF-8"?>
<!DOCTYPE svg PUBLIC "-//W3C//DTD SVG 1.1//EN" "http://www.w3.org/Graphics/SVG/1.1/DTD/svg11.dtd">
<!-- Creator: CorelDRAW (Evaluation Version) -->
<svg xmlns="http://www.w3.org/2000/svg" xml:space="preserve" width="128.929mm" height="34.2882mm" version="1.1" style="shape-rendering:geometricPrecision; text-rendering:geometricPrecision; image-rendering:optimizeQuality; fill-rule:evenodd; clip-rule:evenodd"
viewBox="0 0 4837.08 1286.4"
 xmlns:xlink="http://www.w3.org/1999/xlink"
 xmlns:xodm="http://www.corel.com/coreldraw/odm/2003">
 <defs>
  <style type="text/css">
   <![CDATA[
    .fil2 {fill:#FEFEFE;fill-rule:nonzero}
    .fil0 {fill:#C12C2D;fill-rule:nonzero}
    .fil1 {fill:#393584;fill-rule:nonzero}
   ]]>
  </style>
 </defs>
 <g id="Layer_x0020_1">
  <metadata id="CorelCorpID_0Corel-Layer"/>
  <g id="_1803831400480">
   <g>
    <g>
     <polygon class="fil0" points="175.12,974.18 19.09,974.18 19.09,387.93 175.12,387.93 "/>
     <polygon class="fil0" points="586.27,387.89 586.27,974.23 449.45,974.23 368.28,707.74 368.28,974.23 237.82,974.23 237.82,387.89 368.28,387.89 455.78,651.9 455.78,387.89 "/>
     <polygon class="fil0" points="649,387.89 913.36,387.89 913.36,505.23 805.03,505.23 805.03,616.41 901.46,616.41 901.46,727.96 805.03,727.96 805.03,974.23 649,974.23 "/>
     <polygon class="fil0" points="1107.29,974.18 951.2,974.18 951.2,387.93 1107.29,387.93 "/>
     <polygon class="fil0" points="1518.49,387.89 1518.49,974.23 1381.6,974.23 1300.43,707.74 1300.43,974.23 1169.98,974.23 1169.98,387.89 1300.43,387.89 1387.99,651.9 1387.99,387.89 "/>
     <polygon class="fil0" points="1737.24,974.18 1581.15,974.18 1581.15,387.93 1737.24,387.93 "/>
     <polygon class="fil0" points="2114.29,387.89 2114.29,505.23 2021.63,505.23 2021.63,974.23 1865.47,974.23 1865.47,505.23 1773.19,505.23 1773.19,387.89 "/>
     <path class="fil0" d="M2501.38 387.89l-113.79 374.1 0 212.24 -144.67 0 0 -212.24 -109.73 -374.1 143.4 0c22.41,114.48 35.05,191.45 37.98,231.08 8.56,-62.59 23.08,-139.58 43.44,-231.08l143.38 0z"/>
    </g>
    <g>
     <path class="fil1" d="M2818.06 709.86l0 164.05c21.93,-0.72 35.96,-4.06 41.99,-10.14 6.13,-6.01 9.17,-20.89 9.17,-44.54l0 -54.69c0,-25.14 -2.72,-40.33 -8.13,-45.62 -5.48,-5.29 -19.76,-8.32 -43.02,-9.06zm0 -221.57l0 130.32c6.61,-0.24 11.78,-0.36 15.55,-0.36 15.31,0 25.02,-3.65 29.23,-11.08 4.25,-7.33 6.37,-28.43 6.37,-63.12 0,-18.41 -1.76,-31.23 -5.22,-38.58 -3.46,-7.41 -7.96,-12.04 -13.49,-13.97 -5.6,-1.95 -16.41,-3.05 -32.45,-3.22zm-156.09 -100.38l155.66 0c49.22,0 86.53,3.76 111.79,11.23 25.34,7.47 45.81,22.62 61.36,45.45 15.69,22.78 23.46,59.49 23.46,110.16 0,34.28 -5.53,58.14 -16.59,71.7 -11.06,13.49 -32.69,23.87 -65.02,31.11 36.03,8.02 60.52,21.15 73.41,39.68 12.88,18.46 19.2,46.78 19.2,84.93l0 54.39c0,39.61 -4.56,69.01 -13.8,88.05 -9.3,19.07 -24.13,32.07 -44.42,39.11 -20.24,6.99 -61.73,10.58 -124.56,10.58l-180.51 0 0 -586.38z"/>
     <path class="fil1" d="M3237.44 488.25l0 130.4c17.5,0 29.76,-2.38 36.87,-7.11 7.05,-4.74 10.58,-20 10.58,-45.82l0 -32.2c0,-18.65 -3.41,-30.79 -10.21,-36.56 -6.8,-5.77 -19.26,-8.7 -37.24,-8.7zm-156.04 -100.31l110.4 0c73.7,0 123.53,2.79 149.65,8.27 26.07,5.58 47.28,19.81 63.74,42.64 16.47,22.79 24.66,59.18 24.66,109.13 0,45.62 -5.84,76.31 -17.43,91.99 -11.68,15.74 -34.46,25.09 -68.6,28.25 30.92,7.54 51.64,17.5 62.28,30.09 10.63,12.5 17.26,24.11 19.93,34.51 2.55,10.56 3.82,39.49 3.82,86.82l0 154.56 -144.97 0 0 -194.79c0,-31.41 -2.55,-50.79 -7.66,-58.32 -5.03,-7.47 -18.29,-11.25 -39.78,-11.25l0 264.36 -156.04 0 0 -586.26z"/>
     <polygon class="fil1" points="3646.35,974.2 3490.33,974.2 3490.33,387.94 3646.35,387.94 "/>
     <path class="fil1" d="M3865.14 488.25l0 385.71c22.49,0 36.34,-4.44 41.63,-13.26 5.1,-8.87 7.72,-32.74 7.72,-71.87l0 -227.84c0,-26.49 -0.91,-43.56 -2.62,-51.03 -1.76,-7.48 -5.7,-12.88 -11.85,-16.47 -6.13,-3.46 -17.79,-5.24 -34.88,-5.24zm-156.02 -100.31l116.72 0c75.4,0 126.43,3.34 152.99,10.14 26.56,6.75 46.72,17.86 60.57,33.24 13.92,15.48 22.55,32.74 26.01,51.7 3.41,18.95 5.17,56.2 5.17,111.67l0 205.37c0,52.62 -2.49,87.79 -7.59,105.54 -5.1,17.74 -13.92,31.64 -26.56,41.68 -12.62,9.96 -28.19,17 -46.72,20.96 -18.47,4 -46.42,5.94 -83.78,5.94l-196.8 0 0 -586.26z"/>
     <path class="fil1" d="M4486.98 603.78l-156.09 0 0 -53.29c0,-33.55 -1.52,-54.51 -4.49,-62.95 -2.91,-8.51 -10.02,-12.69 -21.13,-12.69 -9.54,0 -16.17,3.58 -19.63,10.87 -3.46,7.23 -5.17,25.82 -5.17,55.78l0 281.37c0,26.3 1.7,43.63 5.17,51.95 3.46,8.39 10.33,12.52 20.79,12.52 11.35,0 19.07,-4.69 23.15,-14.16 4.13,-9.42 6.13,-27.71 6.13,-55.04l0 -69.51 -31.54 0 0 -89.08 182.83 0 0 314.74 -98.12 0 -14.47 -42.11c-10.57,18.17 -23.99,31.77 -40.21,40.77 -16.17,9.13 -35.36,13.62 -57.35,13.62 -26.19,0 -50.74,-6.27 -73.65,-18.72 -22.9,-12.33 -40.21,-27.76 -52.06,-46.12 -11.92,-18.34 -19.4,-37.6 -22.3,-57.77 -2.98,-20.12 -4.45,-50.38 -4.45,-90.71l0 -174.14c0,-56.08 3.05,-96.72 9.3,-122.06 6.08,-25.4 23.89,-48.67 53.17,-69.7 29.28,-21.13 67.13,-31.78 113.62,-31.78 45.74,0 83.67,9.23 113.87,27.52 30.14,18.36 49.76,40.17 58.94,65.38 9.11,25.21 13.73,61.91 13.73,109.99l0 25.34z"/>
     <polygon class="fil1" points="4547.38,387.91 4807.62,387.91 4807.62,505.25 4703.4,505.25 4703.4,616.42 4800.99,616.42 4800.99,727.98 4703.4,727.98 4703.4,856.91 4818,856.91 4818,974.25 4547.38,974.25 "/>
    </g>
   </g>
   <g>
    <path class="fil2" d="M2751.73 199.67l0 -182.82 45.38 0 0 198.08c-0.12,4.98 -1.28,9.9 -3.58,14.76 -4.44,9.85 -12.21,14.83 -23.27,14.83l0 0.36 -44.85 0c-11.54,0 -17.38,-4.74 -17.38,-14.16l0 -16.65c0,-9.59 5.84,-14.4 17.38,-14.4l26.31 0zm-96.67 0l0 -182.82 45.38 0 0 182.82 25.89 0 0 45.21 -97.52 0c-11.61,0 -17.43,-4.74 -17.43,-14.16l0 -16.65c0,-9.59 5.82,-14.4 17.43,-14.4l26.25 0zm-141.99 -135.98l-26.8 -26.92 26.8 -26.78 26.73 26.78 -26.73 26.92zm60.82 135.98c-4.86,-10.14 -7.29,-20.89 -7.29,-32.31l0 -7.72c0,-8.46 -3.05,-15.62 -9.06,-21.58 -5.96,-5.89 -13.07,-8.87 -21.32,-8.87l-76.02 0 17.76 -45.19 58.26 0c20.77,0 38.63,7.41 53.46,22.11 14.76,14.88 22.12,32.69 22.12,53.53l0 30.19c0,3.27 0.79,6.56 2.37,9.83l15.43 0 0 45.21 -194.5 0c-11.54,0 -17.38,-4.74 -17.38,-14.16l0 -16.65c0,-9.59 5.84,-14.4 17.38,-14.4l138.78 0zm-161.26 0l23.51 0 0 45.21 -166.29 0 0 -45.21 97.15 0 0 -41.68c-0.24,-7.84 -3.29,-14.64 -9.06,-20.34 -5.96,-5.6 -12.88,-8.46 -20.96,-8.46l-48.97 0 0 -45.19 48.97 0c20.84,0 38.65,7.41 53.53,22.11 14.76,14.88 22.11,32.69 22.11,53.53l0 40.03zm-217.39 -40.46c0,-8.15 -2.93,-15.07 -8.7,-20.72 -5.77,-5.84 -13.06,-8.99 -21.69,-9.66l-42.11 0 0 70.84 48.19 0c8.44,0 16.52,1.22 24.3,3.6l0 -44.06zm-117.7 40.46l0 -116.05 87.32 0c20.77,0 38.65,7.35 53.53,22.06 14.71,14.88 22.05,32.74 22.05,53.53l0 85.67 -0.36 0c0.24,0.31 0.36,0.55 0.36,0.84l-25.46 15.38c-6.68,-10.82 -15.6,-16.22 -26.61,-16.22l-140.42 0c-11.54,0 -17.38,-4.74 -17.38,-14.16l0 -16.65c0,-9.59 5.84,-14.4 17.38,-14.4l29.59 0zm-49.57 -182.82l0 182.82 21.13 0 0 45.21 -39.66 0c-11.06,0 -18.89,-4.98 -23.51,-15 -2.26,-4.99 -3.41,-9.97 -3.53,-14.95l0 -198.08 45.57 0zm-144.61 47.4l-26.68 -26.68 -26.49 26.68 -26.8 -26.85 26.8 -26.8 26.49 26.61 26.68 -26.61 26.61 26.8 -26.61 26.85zm69.5 19.76l0 160.88 -228.45 0 0 -86.46c0.43,-20.65 7.95,-38.27 22.72,-52.73 14.59,-14.47 32.2,-21.69 52.87,-21.69l13.06 0 0 45.19 -13.06 0c-8.27,0 -15.38,3.05 -21.34,9.06 -6.01,5.96 -9.04,13.05 -9.04,21.39l0 40.03 137.97 0 0 -115.67 45.26 0zm-357.86 -67.15l45.21 0 0 228.03 -45.21 0 0 -228.03zm-75.16 182.82l0 -182.82 45.45 0 0 198.08c-0.12,4.98 -1.34,9.9 -3.58,14.76 -4.49,9.85 -12.21,14.83 -23.34,14.83l0 0.36 -44.78 0c-11.54,0 -17.38,-4.74 -17.38,-14.16l0 -16.65c0,-9.59 5.84,-14.4 17.38,-14.4l26.25 0zm-124.68 -135.98l-26.85 -26.92 26.85 -26.78 26.68 26.78 -26.68 26.92zm28.51 135.98l0 -70.84 -42.11 0c-8.27,0 -15.43,3.03 -21.32,9.06 -5.91,5.94 -8.89,13 -8.89,21.32l0 40.46 72.32 0zm-117.76 0l0 -41.25c0.41,-20.65 8.01,-38.34 22.72,-52.93 14.71,-14.57 32.38,-21.87 52.93,-21.87l87.49 0 0 116.05 25.46 0 0 45.21 -214.84 0c-11.56,0 -17.38,-4.74 -17.38,-14.16l0 -16.65c0,-9.59 5.82,-14.4 17.38,-14.4l26.25 0zm-74.87 -135.98l-26.85 -26.92 26.85 -26.78 26.68 26.78 -26.68 26.92zm-20.1 135.98l0 -116.05 45.38 0 0 116.05 24.49 0 0 45.21 -96.19 0c-11.54,0 -17.31,-4.74 -17.31,-14.16l0 -16.65c0,-9.59 5.77,-14.4 17.31,-14.4l26.31 0zm-46.92 84.77l-26.61 -26.92 -26.68 26.68 -26.42 -26.68 -26.85 26.92 26.85 26.78 26.42 -26.66 26.68 26.66 26.61 -26.78zm-65.12 -84.77l0 -115.67 45.43 0 0 115.67 41.44 0 0 45.21 -129.72 0c-11.59,0 -17.36,-4.74 -17.36,-14.16l0 -16.65c0,-9.59 5.77,-14.4 17.36,-14.4l42.85 0zm-204.89 0l92.18 0 0 -70.48 -61.79 0c-8.34,0 -15.43,3.05 -21.32,9.06 -6.03,5.96 -9.06,13.05 -9.06,21.39l0 40.03zm70.24 -135.43l-26.61 -26.68 -26.49 26.68 -26.8 -26.85 26.8 -26.8 26.49 26.61 26.61 -26.61 26.68 26.8 -26.68 26.85zm67.32 135.43l25.46 0 0 45.21 -35.12 0c-15.02,0 -25.58,-7.65 -31.6,-23.08l-13.78 23.08 -127.73 0 0 -86.46c0.36,-20.65 7.96,-38.27 22.67,-52.73 14.59,-14.47 32.26,-21.69 52.93,-21.69l33.17 0c13.18,0 22.72,5.65 28.63,17l0 -17 45.38 0 0 115.67zm-351.44 -135.98l-26.8 -26.92 26.8 -26.78 26.67 26.78 -26.67 26.92zm84.51 181.19l-142.73 0 0 -45.21 97.15 0 0 -41.68c-0.29,-7.84 -3.34,-14.64 -9.11,-20.34 -5.89,-5.6 -12.88,-8.46 -20.89,-8.46l-48.98 0 0 -45.19 48.98 0c20.77,0 38.58,7.41 53.53,22.11 14.69,14.88 22.05,32.69 22.05,53.53l0 85.24zm-172.32 -22.67c0,6.2 -2.05,11.42 -6.3,15.62 -4.32,4.19 -9.61,6.25 -15.74,6.25 -6.13,0 -11.3,-2.06 -15.62,-6.25 -4.18,-4.37 -6.37,-9.54 -6.37,-15.62 0,-6.2 2.19,-11.42 6.37,-15.86 4.2,-4.18 9.37,-6.25 15.62,-6.25 6.01,0 11.18,2.07 15.55,6.25 4.37,4.45 6.49,9.66 6.49,15.86zm-118.89 -62.57c0,-8.46 -2.93,-15.57 -8.87,-21.39 -5.91,-5.72 -13.12,-8.75 -21.7,-9.06l-41.68 0 0 70.48 72.25 0 0 -40.03zm45.43 85.24l-150.07 0c-7.23,0 -13.99,2.91 -20.36,8.75 -6.68,6.13 -10.09,13.24 -10.09,21.27l0 25.1 -27.4 0 0 -25.1c0,-32.52 14.95,-55.47 44.78,-68.91l0 -121.99 87.49 0c20.55,0 38.22,7.21 52.93,21.69 14.76,14.47 22.3,32.08 22.72,52.73l0 86.46zm-237.44 -22.67c0,6.2 -2.14,11.42 -6.39,15.62 -4.3,4.19 -9.59,6.25 -15.72,6.25 -6.08,0 -11.3,-2.06 -15.62,-6.25 -4.25,-4.37 -6.32,-9.54 -6.32,-15.62 0,-6.2 2.06,-11.42 6.32,-15.86 4.19,-4.18 9.42,-6.25 15.62,-6.25 6.01,0 11.23,2.07 15.55,6.25 4.37,4.45 6.57,9.66 6.57,15.86zm-118.91 -62.57c0,-8.46 -2.98,-15.57 -8.94,-21.39 -5.89,-5.72 -13.18,-8.75 -21.69,-9.06l-41.68 0 0 70.48 72.3 0 0 -40.03zm45.38 85.24l-150.07 0c-7.23,0 -13.99,2.91 -20.36,8.75 -6.68,6.13 -10.02,13.24 -10.02,21.27l0 25.1 -27.47 0 0 -25.1c0,-32.52 14.95,-55.47 44.85,-68.91l0 -121.99 87.49 0c20.53,0 38.15,7.21 52.86,21.69 14.76,14.47 22.3,32.08 22.72,52.73l0 86.46z"/>
    <path class="fil2" d="M4790.36 7.11l46.72 0 0 235.56 -46.72 0 0 -235.56zm46.72 277.43l0 15.86 -47.16 0 0 -15.86 6.39 0c-0.86,-2.19 -1.29,-4.61 -1.29,-7.17l0 -2.07c0,-5.05 1.77,-9.3 5.11,-12.83 3.58,-3.39 7.84,-5.1 12.88,-5.1l3.7 0c10.94,0 16.95,5.41 17.93,16.35l-10.82 0c-1.1,-3.7 -3.46,-5.53 -7.11,-5.53l-3.7 0c-4.75,0 -7.11,2.38 -7.11,7.11l0 2.07c0,3.82 1.7,6.2 5.29,7.17l25.89 0zm-103.91 -229.07l-27.76 -27.76 27.76 -27.71 27.52 27.71 -27.52 27.76zm-20.84 140.54l0 -119.94 46.92 0 0 135.61 -0.38 0c0,5.17 -1.21,10.34 -3.52,15.5 -4.61,10.33 -12.71,15.48 -24.25,15.48l-45.86 0c-12.04,0 -17.98,-4.86 -17.98,-14.64l0 -17.14c0,-9.9 5.94,-14.88 17.98,-14.88l27.09 0zm-128.74 -140.54l-27.76 -27.76 27.76 -27.71 27.52 27.71 -27.52 27.76zm29.35 140.54l0 -73.22 -43.45 0c-8.56,0 -15.85,3.1 -22.05,9.35 -6.08,6.08 -9.11,13.5 -9.11,22.06l0 41.8 74.61 0zm-121.58 0l0 -42.65c0.41,-21.34 8.25,-39.56 23.44,-54.63 15.26,-15.12 33.48,-22.67 54.69,-22.67l90.35 0 0 119.94 26.32 0 0 46.66 -221.9 0c-11.97,0 -17.91,-4.86 -17.91,-14.64l0 -17.14c0,-9.9 5.94,-14.88 17.91,-14.88l27.11 0zm-48.38 87.49l-27.52 -27.77 -27.52 27.52 -27.33 -27.52 -27.71 27.77 27.71 27.71 27.33 -27.52 27.52 27.52 27.52 -27.71zm-67.26 -87.49l0 -119.51 46.85 0 0 119.51 42.9 0 0 46.66 -134.05 0c-11.95,0 -17.91,-4.86 -17.91,-14.64l0 -17.14c0,-9.9 5.96,-14.88 17.91,-14.88l44.3 0zm-94.54 -140.54l-27.71 -27.76 27.71 -27.71 27.52 27.71 -27.52 27.76zm-20.77 140.54l0 -119.94 46.9 0 0 119.94 25.28 0 0 46.66 -99.34 0c-11.92,0 -17.93,-4.86 -17.93,-14.64l0 -17.14c0,-9.9 6.01,-14.88 17.93,-14.88l27.16 0zm-48.38 87.49l-27.57 -27.77 -27.52 27.52 -27.28 -27.52 -27.76 27.77 27.76 27.71 27.28 -27.52 27.52 27.52 27.57 -27.71zm-67.31 -87.49l0 -119.51 46.9 0 0 119.51 42.83 0 0 46.66 -133.98 0c-12.02,0 -17.91,-4.86 -17.91,-14.64l0 -17.14c0,-9.9 5.89,-14.88 17.91,-14.88l44.25 0zm-80.21 -139.92l-27.52 -27.54 -27.28 27.54 -27.76 -27.71 27.76 -27.77 27.28 27.52 27.52 -27.52 27.52 27.77 -27.52 27.71zm-52.62 139.92l0 -119.51 46.9 0 0 119.51 42.83 0 0 46.66 -133.96 0c-11.97,0 -18,-4.86 -18,-14.64l0 -17.14c0,-9.9 6.03,-14.88 18,-14.88l44.23 0zm-166.24 87.49l-27.52 -27.77 -27.52 27.52 -27.35 -27.52 -27.7 27.77 27.7 27.71 27.35 -27.52 27.52 27.52 27.52 -27.71zm123.21 -87.49l0 46.66 -37.55 0c-18.46,0 -29.23,-6.32 -32.26,-19.13l-26.25 -100.38 -29.23 0 30.38 119.51 -130.69 0c-21.51,0 -39.92,-7.59 -55.48,-22.84 -15.38,-15.38 -23.03,-33.72 -23.03,-55.24l0 -10.38c0,-21.15 7.41,-39.25 22.24,-54.44 14.76,-15.12 32.74,-22.84 53.82,-23.27l0 46.66c-8.13,0.43 -15.05,3.7 -20.84,9.85 -5.7,5.94 -8.56,13 -8.56,21.2l0 10.38c0,8.58 3.22,15.91 9.66,22 6.2,6.27 13.61,9.42 22.18,9.42l73.02 0 -31.65 -119.51 99.34 0c18.34,0 29.11,6.2 32.2,18.7l3.28 11.68 21.87 89.13 27.52 0zm-433.02 121.33l-27.71 -27.71 27.71 -27.76 27.52 27.76 -27.52 27.71zm-5.12 -121.33l0 -119.51 46.92 0 0 135.61c-0.19,5.17 -1.34,10.26 -3.65,15.24 -4.67,10.21 -12.64,15.31 -24.11,15.31l-46.3 0c-11.92,0 -17.88,-4.86 -17.88,-14.64l0 -17.14c0,-9.9 5.96,-14.88 17.88,-14.88l27.14 0zm-50.91 -119.94l0 119.94 24.66 0 0 46.66 -27.76 0c-4.31,16.77 -13.49,30.45 -27.28,41.27 -14.21,10.99 -30.19,16.47 -48.17,16.47l-14.64 0 0 -28.51 14.64 0c8.2,0 15.31,-3.27 21.39,-9.78 6.01,-6.32 9.29,-13.54 9.84,-21.87l0 -164.17 47.33 0zm-150.98 179.67l-27.52 27.52 -27.28 -27.52 -27.78 27.77 27.78 27.71 27.28 -27.52 27.52 27.52 27.58 -27.71 -27.58 -27.77zm-19.76 -59.73l0 -119.51 46.97 0 0 135.61c-0.19,5.17 -1.4,10.26 -3.7,15.24 -4.61,10.21 -12.64,15.31 -24.06,15.31l-85.86 0c-11.97,0 -17.93,-4.86 -17.93,-14.64l0 -17.14c0,-9.9 5.96,-14.88 17.93,-14.88l66.65 0zm-87.66 0l24.23 0 0 46.66 -171.7 0 0 -46.66 100.36 0 0 -43.02c-0.24,-8.2 -3.39,-15.19 -9.4,-21.01 -6.08,-5.89 -13.31,-8.82 -21.58,-8.82l-50.6 0 0 -46.66 50.6 0c21.46,0 39.87,7.59 55.23,22.84 15.26,15.38 22.86,33.72 22.86,55.24l0 41.44zm-268.15 121.33l-27.76 -27.71 27.76 -27.76 27.54 27.76 -27.54 27.71zm90.11 -121.33l0 46.66 -149.46 0c-8.7,0 -16.53,3.05 -23.46,8.99 -7.23,6.27 -10.82,13.63 -10.82,22.06l0 25.89 -28.37 0 0 -25.89c0,-21.51 7.65,-39.85 22.84,-55.05 15.38,-15.14 33.84,-22.66 55.29,-22.66l76.51 0c-5.05,-10.46 -7.54,-21.63 -7.54,-33.48l-0.41 -7.95c0,-8.68 -3.05,-16.11 -8.94,-22.18 -6.2,-6.13 -13.48,-9.23 -22.11,-9.23l-78.51 0 18.36 -46.66 60.14 0c21.68,0 40.09,7.59 55.29,22.84 15.19,15.07 22.86,33.55 22.86,55.24l0 28.79c0,4.2 0.91,8.39 2.6,12.64l15.74 0z"/>
   </g>
   <path class="fil2" d="M880.4 1283.44l0 -135.68 -50.95 0 0 -27.59 136.5 0 0 27.59 -50.7 0 0 135.68 -34.85 0zm108.1 0l0 -163.27 127.37 0 0 27.59 -92.52 0 0 36.26 86.03 0 0 27.59 -86.03 0 0 44.24 95.89 0 0 27.59 -130.73 0zm270.36 -60.2l33.65 9.8c-5.17,17.98 -13.78,31.32 -25.79,40.06 -12.02,8.7 -27.24,13.07 -45.7,13.07 -22.87,0 -41.66,-7.41 -56.39,-22.23 -14.7,-14.82 -22.07,-35.08 -22.07,-60.81 0,-27.17 7.41,-48.3 22.19,-63.36 14.78,-15.05 34.25,-22.57 58.36,-22.57 21.07,0 38.17,5.93 51.31,17.75 7.85,6.99 13.7,17.03 17.62,30.14l-34.37 7.75c-2.04,-8.44 -6.29,-15.12 -12.74,-20.03 -6.49,-4.9 -14.34,-7.33 -23.55,-7.33 -12.78,0 -23.15,4.33 -31.08,13.03 -7.97,8.67 -11.93,22.73 -11.93,42.18 0,20.6 3.92,35.31 11.74,44.05 7.85,8.78 18.02,13.15 30.56,13.15 9.26,0 17.22,-2.77 23.87,-8.36 6.65,-5.59 11.46,-14.33 14.34,-26.3zm63.48 60.2l0 -163.27 34.85 0 0 64.3 67.77 0 0 -64.3 34.85 0 0 163.27 -34.85 0 0 -71.38 -67.77 0 0 71.38 -34.85 0zm173.55 0l0 -163.27 33.72 0 70.82 109.42 0 -109.42 32.2 0 0 163.27 -34.81 0 -69.73 -107.33 0 107.33 -32.2 0zm172.35 0l0 -163.27 34.85 0 0 163.27 -34.85 0zm178.03 -60.2l33.65 9.8c-5.17,17.98 -13.78,31.32 -25.79,40.06 -12.02,8.7 -27.24,13.07 -45.7,13.07 -22.87,0 -41.66,-7.41 -56.4,-22.23 -14.7,-14.82 -22.07,-35.08 -22.07,-60.81 0,-27.17 7.41,-48.3 22.19,-63.36 14.78,-15.05 34.25,-22.57 58.35,-22.57 21.07,0 38.17,5.93 51.31,17.75 7.85,6.99 13.7,17.03 17.63,30.14l-34.37 7.75c-2.04,-8.44 -6.29,-15.12 -12.74,-20.03 -6.49,-4.9 -14.34,-7.33 -23.55,-7.33 -12.77,0 -23.15,4.33 -31.08,13.03 -7.97,8.67 -11.93,22.73 -11.93,42.18 0,20.6 3.92,35.31 11.73,44.05 7.85,8.78 18.03,13.15 30.56,13.15 9.25,0 17.22,-2.77 23.87,-8.36 6.65,-5.59 11.45,-14.33 14.34,-26.3zm218.49 60.2l-37.53 0 -14.86 -37.17 -69.01 0 -14.3 37.17 -36.85 0 66.81 -163.27 36.81 0 68.93 163.27zm-63.69 -64.76l-23.91 -60.43 -23.23 60.43 47.14 0zm83.19 64.76l0 -161.9 34.85 0 0 134.31 86.27 0 0 27.59 -121.12 0zm199.14 -52.9l33.89 -3.19c2.04,10.75 6.13,18.62 12.34,23.68 6.21,5.05 14.58,7.56 25.11,7.56 11.14,0 19.55,-2.24 25.19,-6.72 5.65,-4.49 8.49,-9.73 8.49,-15.73 0,-3.88 -1.2,-7.15 -3.56,-9.88 -2.36,-2.7 -6.53,-5.06 -12.46,-7.03 -4.04,-1.37 -13.25,-3.73 -27.67,-7.15 -18.55,-4.41 -31.56,-9.8 -39.06,-16.23 -10.53,-9.01 -15.78,-19.99 -15.78,-32.95 0,-8.32 2.48,-16.15 7.41,-23.41 4.97,-7.26 12.1,-12.77 21.43,-16.57 9.33,-3.8 20.55,-5.7 33.77,-5.7 21.51,0 37.73,4.52 48.58,13.6 10.9,9.09 16.58,21.17 17.15,36.34l-34.85 1.14c-1.48,-8.44 -4.65,-14.48 -9.5,-18.17 -4.84,-3.68 -12.13,-5.55 -21.83,-5.55 -10.01,0 -17.86,1.98 -23.51,5.93 -3.65,2.55 -5.49,5.93 -5.49,10.18 0,3.88 1.72,7.18 5.17,9.92 4.37,3.53 14.98,7.18 31.84,10.98 16.86,3.76 29.32,7.72 37.37,11.74 8.09,4.07 14.42,9.58 18.98,16.61 4.57,7.03 6.85,15.7 6.85,26 0,9.35 -2.72,18.13 -8.21,26.3 -5.49,8.17 -13.22,14.25 -23.23,18.2 -10.01,3.99 -22.51,5.97 -37.45,5.97 -21.75,0 -38.45,-4.75 -50.1,-14.29 -11.66,-9.5 -18.59,-23.37 -20.87,-41.58zm169.43 52.9l0 -163.27 127.37 0 0 27.59 -92.52 0 0 36.26 86.03 0 0 27.59 -86.03 0 0 44.24 95.89 0 0 27.59 -130.73 0zm160.29 0l0 -163.27 73.18 0c18.38,0 31.76,1.48 40.09,4.41 8.37,2.93 15.02,8.13 20.03,15.62 5,7.52 7.53,16.08 7.53,25.73 0,12.28 -3.76,22.38 -11.33,30.37 -7.57,7.98 -18.86,13 -33.92,15.09 7.49,4.14 13.66,8.7 18.5,13.68 4.88,4.98 11.45,13.83 19.7,26.53l20.99 31.85 -41.54 0 -24.92 -35.65c-8.93,-12.66 -15.06,-20.64 -18.38,-23.94 -3.28,-3.27 -6.77,-5.55 -10.45,-6.77 -3.73,-1.21 -9.57,-1.82 -17.58,-1.82l-7.05 0 0 68.18 -34.85 0zm34.85 -94.18l25.71 0c16.66,0 27.04,-0.68 31.2,-2.01 4.12,-1.33 7.41,-3.65 9.73,-6.91 2.36,-3.27 3.52,-7.37 3.52,-12.28 0,-5.51 -1.56,-9.92 -4.65,-13.34 -3.08,-3.38 -7.45,-5.51 -13.06,-6.39 -2.84,-0.38 -11.29,-0.57 -25.35,-0.57l-27.12 0 0 41.5zm178.4 94.18l-61.56 -163.27 37.65 0 43.7 120.85 41.94 -120.85 37.01 0 -61.21 163.27 -37.53 0zm115.07 0l0 -163.27 34.85 0 0 163.27 -34.85 0zm178.04 -60.2l33.64 9.8c-5.17,17.98 -13.78,31.32 -25.79,40.06 -12.02,8.7 -27.24,13.07 -45.7,13.07 -22.87,0 -41.66,-7.41 -56.4,-22.23 -14.7,-14.82 -22.07,-35.08 -22.07,-60.81 0,-27.17 7.41,-48.3 22.19,-63.36 14.78,-15.05 34.25,-22.57 58.36,-22.57 21.07,0 38.17,5.93 51.31,17.75 7.85,6.99 13.7,17.03 17.62,30.14l-34.37 7.75c-2.04,-8.44 -6.29,-15.12 -12.74,-20.03 -6.49,-4.9 -14.34,-7.33 -23.55,-7.33 -12.77,0 -23.15,4.33 -31.08,13.03 -7.97,8.67 -11.93,22.73 -11.93,42.18 0,20.6 3.93,35.31 11.74,44.05 7.85,8.78 18.02,13.15 30.56,13.15 9.25,0 17.22,-2.77 23.87,-8.36 6.65,-5.59 11.45,-14.33 14.34,-26.3zm63.48 60.2l0 -163.27 127.37 0 0 27.59 -92.52 0 0 36.26 86.03 0 0 27.59 -86.03 0 0 44.24 95.89 0 0 27.59 -130.73 0zm151.16 -52.9l33.89 -3.19c2.04,10.75 6.13,18.62 12.34,23.68 6.21,5.05 14.58,7.56 25.11,7.56 11.13,0 19.55,-2.24 25.19,-6.72 5.65,-4.49 8.49,-9.73 8.49,-15.73 0,-3.88 -1.2,-7.15 -3.56,-9.88 -2.36,-2.7 -6.53,-5.06 -12.46,-7.03 -4.05,-1.37 -13.26,-3.73 -27.68,-7.15 -18.54,-4.41 -31.56,-9.8 -39.05,-16.23 -10.53,-9.01 -15.78,-19.99 -15.78,-32.95 0,-8.32 2.48,-16.15 7.41,-23.41 4.97,-7.26 12.1,-12.77 21.43,-16.57 9.33,-3.8 20.55,-5.7 33.77,-5.7 21.51,0 37.73,4.52 48.58,13.6 10.9,9.09 16.58,21.17 17.14,36.34l-34.85 1.14c-1.48,-8.44 -4.65,-14.48 -9.49,-18.17 -4.85,-3.68 -12.14,-5.55 -21.83,-5.55 -10.02,0 -17.87,1.98 -23.51,5.93 -3.64,2.55 -5.49,5.93 -5.49,10.18 0,3.88 1.72,7.18 5.17,9.92 4.37,3.53 14.98,7.18 31.84,10.98 16.86,3.76 29.32,7.72 37.37,11.74 8.09,4.07 14.42,9.58 18.99,16.61 4.57,7.03 6.85,15.7 6.85,26 0,9.35 -2.72,18.13 -8.21,26.3 -5.49,8.17 -13.21,14.25 -23.23,18.2 -10.02,3.99 -22.51,5.97 -37.45,5.97 -21.75,0 -38.45,-4.75 -50.1,-14.29 -11.66,-9.5 -18.59,-23.37 -20.87,-41.58zm237.15 52.9l0 -161.9 34.85 0 0 134.31 86.27 0 0 27.59 -121.12 0zm146.79 0l0 -161.9 34.85 0 0 134.31 86.27 0 0 27.59 -121.12 0zm255.9 -60.2l33.65 9.8c-5.17,17.98 -13.78,31.32 -25.8,40.06 -12.02,8.7 -27.24,13.07 -45.7,13.07 -22.87,0 -41.66,-7.41 -56.4,-22.23 -14.7,-14.82 -22.07,-35.08 -22.07,-60.81 0,-27.17 7.41,-48.3 22.19,-63.36 14.78,-15.05 34.25,-22.57 58.36,-22.57 21.07,0 38.17,5.93 51.31,17.75 7.85,6.99 13.7,17.03 17.62,30.14l-34.37 7.75c-2.04,-8.44 -6.29,-15.12 -12.74,-20.03 -6.49,-4.9 -14.34,-7.33 -23.55,-7.33 -12.78,0 -23.15,4.33 -31.08,13.03 -7.97,8.67 -11.93,22.73 -11.93,42.18 0,20.6 3.92,35.31 11.74,44.05 7.85,8.78 18.02,13.15 30.56,13.15 9.26,0 17.22,-2.77 23.88,-8.36 6.65,-5.59 11.45,-14.33 14.34,-26.3z"/>
  </g>
 </g>
</svg>
